{
    "asset" : {
        "generator" : "Khronos glTF Blender I/O v1.2.75",
        "version" : "2.0"
    },
    "scene" : 0,
    "scenes" : [
        {
            "name" : "Scene",
            "nodes" : [
                0
            ]
        }
    ],
    "nodes" : [
        {
            "mesh" : 0,
            "name" : "Cube.020",
            "scale" : [
                0.6508545875549316,
                0.6508545875549316,
                0.6508545875549316
            ]
        }
    ],
    "materials" : [
        {
            "doubleSided" : true,
            "emissiveFactor" : [
                0,
                0,
                0
            ],
            "name" : "Fire_Orange",
            "pbrMetallicRoughness" : {
                "baseColorFactor" : [
                    0.8796226978302002,
                    0.10224166512489319,
                    0.02217390388250351,
                    1
                ],
                "metallicFactor" : 0,
                "roughnessFactor" : 0.5
            }
        },
        {
            "doubleSided" : true,
            "emissiveFactor" : [
                0,
                0,
                0
            ],
            "name" : "Fire_Yellow",
            "pbrMetallicRoughness" : {
                "baseColorFactor" : [
                    0.9911022782325745,
                    0.6583747267723083,
                    0.0006070882081985474,
                    1
                ],
                "metallicFactor" : 0,
                "roughnessFactor" : 0.5
            }
        },
        {
            "doubleSided" : true,
            "emissiveFactor" : [
                0,
                0,
                0
            ],
            "name" : "Fire_MiddleOrange",
            "pbrMetallicRoughness" : {
                "baseColorFactor" : [
                    0.8796226978302002,
                    0.23455052077770233,
                    0.04817185923457146,
                    1
                ],
                "metallicFactor" : 0,
                "roughnessFactor" : 0.5
            }
        }
    ],
    "meshes" : [
        {
            "name" : "Cube.021",
            "primitives" : [
                {
                    "attributes" : {
                        "POSITION" : 0,
                        "NORMAL" : 1,
                        "TEXCOORD_0" : 2
                    },
                    "indices" : 3,
                    "material" : 0
                },
                {
                    "attributes" : {
                        "POSITION" : 4,
                        "NORMAL" : 5,
                        "TEXCOORD_0" : 6
                    },
                    "indices" : 7,
                    "material" : 1
                },
                {
                    "attributes" : {
                        "POSITION" : 8,
                        "NORMAL" : 9,
                        "TEXCOORD_0" : 10
                    },
                    "indices" : 11,
                    "material" : 2
                }
            ]
        }
    ],
    "accessors" : [
        {
            "bufferView" : 0,
            "componentType" : 5126,
            "count" : 76,
            "max" : [
                0.19022926688194275,
                0.598840057849884,
                0.4153890609741211
            ],
            "min" : [
                -0.18558627367019653,
                -0.3324519395828247,
                -0.4151134490966797
            ],
            "type" : "VEC3"
        },
        {
            "bufferView" : 1,
            "componentType" : 5126,
            "count" : 76,
            "type" : "VEC3"
        },
        {
            "bufferView" : 2,
            "componentType" : 5126,
            "count" : 76,
            "type" : "VEC2"
        },
        {
            "bufferView" : 3,
            "componentType" : 5123,
            "count" : 108,
            "type" : "SCALAR"
        },
        {
            "bufferView" : 4,
            "componentType" : 5126,
            "count" : 32,
            "max" : [
                0.2853609323501587,
                0.3128214478492737,
                0.19777488708496094
            ],
            "min" : [
                -0.2511141300201416,
                -0.2858894467353821,
                -0.18566226959228516
            ],
            "type" : "VEC3"
        },
        {
            "bufferView" : 5,
            "componentType" : 5126,
            "count" : 32,
            "type" : "VEC3"
        },
        {
            "bufferView" : 6,
            "componentType" : 5126,
            "count" : 32,
            "type" : "VEC2"
        },
        {
            "bufferView" : 7,
            "componentType" : 5123,
            "count" : 48,
            "type" : "SCALAR"
        },
        {
            "bufferView" : 8,
            "componentType" : 5126,
            "count" : 148,
            "max" : [
                0.2853609323501587,
                0.4670718312263489,
                0.2705669403076172
            ],
            "min" : [
                -0.23365122079849243,
                -0.3239400386810303,
                -0.2788047790527344
            ],
            "type" : "VEC3"
        },
        {
            "bufferView" : 9,
            "componentType" : 5126,
            "count" : 148,
            "type" : "VEC3"
        },
        {
            "bufferView" : 10,
            "componentType" : 5126,
            "count" : 148,
            "type" : "VEC2"
        },
        {
            "bufferView" : 11,
            "componentType" : 5123,
            "count" : 180,
            "type" : "SCALAR"
        }
    ],
    "bufferViews" : [
        {
            "buffer" : 0,
            "byteLength" : 912,
            "byteOffset" : 0
        },
        {
            "buffer" : 0,
            "byteLength" : 912,
            "byteOffset" : 912
        },
        {
            "buffer" : 0,
            "byteLength" : 608,
            "byteOffset" : 1824
        },
        {
            "buffer" : 0,
            "byteLength" : 216,
            "byteOffset" : 2432
        },
        {
            "buffer" : 0,
            "byteLength" : 384,
            "byteOffset" : 2648
        },
        {
            "buffer" : 0,
            "byteLength" : 384,
            "byteOffset" : 3032
        },
        {
            "buffer" : 0,
            "byteLength" : 256,
            "byteOffset" : 3416
        },
        {
            "buffer" : 0,
            "byteLength" : 96,
            "byteOffset" : 3672
        },
        {
            "buffer" : 0,
            "byteLength" : 1776,
            "byteOffset" : 3768
        },
        {
            "buffer" : 0,
            "byteLength" : 1776,
            "byteOffset" : 5544
        },
        {
            "buffer" : 0,
            "byteLength" : 1184,
            "byteOffset" : 7320
        },
        {
            "buffer" : 0,
            "byteLength" : 360,
            "byteOffset" : 8504
        }
    ],
    "buffers" : [
        {
            "byteLength" : 8864,
            "uri" : "data:application/octet-stream;base64,"
        }
    ]
}
