{
    "asset" : {
        "generator" : "Khronos glTF Blender I/O v1.2.75",
        "version" : "2.0"
    },
    "scene" : 0,
    "scenes" : [
        {
            "name" : "Scene",
            "nodes" : [
                0
            ]
        }
    ],
    "nodes" : [
        {
            "mesh" : 0,
            "name" : "Cube.019",
            "scale" : [
                0.35758233070373535,
                0.35758233070373535,
                0.35758233070373535
            ]
        }
    ],
    "materials" : [
        {
            "doubleSided" : true,
            "emissiveFactor" : [
                0,
                0,
                0
            ],
            "name" : "ColorPalettte_SciFi",
            "pbrMetallicRoughness" : {
                "baseColorTexture" : {
                    "index" : 0,
                    "texCoord" : 0
                },
                "metallicFactor" : 0,
                "roughnessFactor" : 1
            }
        }
    ],
    "meshes" : [
        {
            "name" : "Cube.020",
            "primitives" : [
                {
                    "attributes" : {
                        "POSITION" : 0,
                        "NORMAL" : 1,
                        "TEXCOORD_0" : 2
                    },
                    "indices" : 3,
                    "material" : 0
                }
            ]
        }
    ],
    "textures" : [
        {
            "source" : 0
        }
    ],
    "images" : [
        {
            "bufferView" : 4,
            "mimeType" : "image/png",
            "name" : "CustomSciFi_Palete_Shibu-Intervenida"
        }
    ],
    "accessors" : [
        {
            "bufferView" : 0,
            "componentType" : 5126,
            "count" : 1256,
            "max" : [
                0.3466300964355469,
                0.7286472320556641,
                0.4210028648376465
            ],
            "min" : [
                -0.3889122009277344,
                -0.4246854782104492,
                -0.5637631416320801
            ],
            "type" : "VEC3"
        },
        {
            "bufferView" : 1,
            "componentType" : 5126,
            "count" : 1256,
            "type" : "VEC3"
        },
        {
            "bufferView" : 2,
            "componentType" : 5126,
            "count" : 1256,
            "type" : "VEC2"
        },
        {
            "bufferView" : 3,
            "componentType" : 5123,
            "count" : 1650,
            "type" : "SCALAR"
        }
    ],
    "bufferViews" : [
        {
            "buffer" : 0,
            "byteLength" : 15072,
            "byteOffset" : 0
        },
        {
            "buffer" : 0,
            "byteLength" : 15072,
            "byteOffset" : 15072
        },
        {
            "buffer" : 0,
            "byteLength" : 10048,
            "byteOffset" : 30144
        },
        {
            "buffer" : 0,
            "byteLength" : 3300,
            "byteOffset" : 40192
        },
        {
            "buffer" : 0,
            "byteLength" : 18152,
            "byteOffset" : 43492
        }
    ],
    "buffers" : [
        {
            "byteLength" : 61644,
            "uri" : "data:application/octet-stream;base64,"
        }
    ]
}
